<?xml version="1.0" encoding="utf-8"?>
<svg xmlns="http://www.w3.org/2000/svg" width="17" height="17" viewBox="0 0 17 17">
    <path
        d="M 16.628 7.776 L 15.881 6.842 C 15.632 6.531 15.305 6.375 14.979 6.375 C 14.653 6.375 14.326 6.531 14.077 6.842 L 9.415 12.669 C 9.177 12.966 9.016 13.344 8.95 13.755 L 8.507 16.523 C 8.467 16.774 8.623 17 8.796 17 C 8.817 17 8.838 16.997 8.86 16.992 L 11.074 16.439 C 11.403 16.356 11.706 16.154 11.943 15.857 L 16.605 10.03 C 17.127 9.406 17.127 8.397 16.628 7.776 Z M 11.365 15.078 C 11.246 15.226 11.096 15.327 10.931 15.368 L 9.497 15.755 L 9.784 13.964 C 9.817 13.758 9.897 13.57 10.016 13.421 L 13.053 9.626 L 14.402 11.311 L 11.365 15.078 Z M 16.028 9.28 L 15.002 10.563 L 13.653 8.877 L 14.679 7.595 C 14.787 7.46 14.914 7.439 14.98 7.439 C 15.045 7.439 15.172 7.46 15.28 7.595 L 16.027 8.529 C 16.137 8.663 16.152 8.822 16.152 8.902 C 16.152 8.985 16.137 9.144 16.028 9.28 Z M 5.927 8.5 C 7.805 8.5 9.327 6.597 9.327 4.25 C 9.327 1.903 7.805 0 5.927 0 C 4.073 0 2.55 1.903 2.55 4.25 C 2.55 6.597 4.073 8.5 5.927 8.5 Z M 5.927 1.062 C 7.333 1.062 8.477 2.492 8.477 4.25 C 8.477 6.007 7.333 7.437 5.927 7.437 C 4.52 7.437 3.376 6.007 3.376 4.25 C 3.376 2.492 4.545 1.062 5.927 1.062 Z M 7.239 15.937 L 0.921 15.937 C 0.882 15.937 0.85 15.898 0.85 15.848 C 0.85 13.261 2.534 11.156 4.604 11.156 L 7.295 11.156 C 7.804 11.156 8.284 11.296 8.725 11.53 C 8.897 11.622 9.073 11.563 9.229 11.398 C 9.433 11.143 9.373 10.706 9.109 10.563 C 8.53 10.263 7.941 10.094 7.298 10.094 L 4.604 10.094 C 2.06 10.094 -0.003 12.67 0 15.851 C 0 16.482 0.415 17 0.921 17 L 7.241 17 C 7.468 17 7.652 16.77 7.652 16.486 L 7.652 16.451 C 7.627 16.167 7.468 15.937 7.239 15.937 Z"/>
</svg>