<?xml version="1.0" encoding="utf-8"?>
<svg xmlns="http://www.w3.org/2000/svg" width="17" height="17" viewBox="0 0 17 17">
    <path
        d="M 8.5 0 C 3.805 0 0 3.805 0 8.5 C 0 13.195 3.805 17 8.5 17 C 13.195 17 17 13.195 17 8.5 C 17 3.805 13.195 0 8.5 0 Z M 8.5 15.937 C 4.399 15.937 1.062 12.601 1.062 8.5 C 1.062 4.399 4.399 1.062 8.5 1.062 C 12.601 1.062 15.937 4.399 15.937 8.5 C 15.937 12.601 12.601 15.937 8.5 15.937 Z M 7.969 11.422 C 7.529 11.422 7.172 11.779 7.172 12.219 C 7.172 12.659 7.529 13.016 7.969 13.016 C 8.409 13.016 8.766 12.659 8.766 12.219 C 8.766 11.779 8.41 11.422 7.969 11.422 Z M 9.483 4.25 L 7.517 4.25 C 6.302 4.25 5.312 5.239 5.312 6.455 L 5.312 6.773 C 5.312 7.067 5.55 7.305 5.844 7.305 C 6.137 7.305 6.375 7.066 6.375 6.773 L 6.375 6.455 C 6.375 5.824 6.886 5.312 7.517 5.312 L 9.484 5.312 C 10.114 5.312 10.625 5.824 10.625 6.455 C 10.625 6.869 10.4 7.252 10.059 7.441 L 8.052 8.444 C 7.673 8.656 7.437 9.054 7.437 9.489 L 7.437 10.094 C 7.437 10.386 7.677 10.625 7.969 10.625 C 8.261 10.625 8.5 10.386 8.5 10.094 L 8.5 9.489 C 8.5 9.441 8.526 9.397 8.548 9.384 L 10.554 8.381 C 11.253 7.992 11.687 7.255 11.687 6.455 C 11.687 5.239 10.698 4.25 9.483 4.25 Z"/>
</svg>