<?xml version="1.0" encoding="utf-8"?>
<svg xmlns="http://www.w3.org/2000/svg" width="17" height="17" viewBox="0 0 17 17">
    <path
        d="M 11.687 8.5 C 11.687 8.345 11.636 8.189 11.532 8.071 L 6.751 2.607 C 6.543 2.369 6.207 2.369 6 2.607 C 5.792 2.844 5.792 3.228 6 3.465 L 9.875 7.893 L 0.531 7.893 C 0.238 7.893 0 8.166 0 8.5 C 0 8.834 0.238 9.107 0.531 9.107 L 9.875 9.107 L 6 13.535 C 5.792 13.773 5.792 14.157 6 14.394 C 6.207 14.631 6.544 14.631 6.751 14.394 L 11.532 8.93 C 11.634 8.811 11.687 8.656 11.687 8.5 Z M 14.344 0 L 11.156 0 C 10.864 0 10.625 0.272 10.625 0.607 C 10.625 0.943 10.864 1.214 11.156 1.214 L 14.344 1.214 C 15.224 1.214 15.937 2.031 15.937 3.036 L 15.937 13.964 C 15.937 14.969 15.223 15.786 14.344 15.786 L 11.156 15.786 C 10.863 15.786 10.625 16.057 10.625 16.393 C 10.625 16.728 10.863 17 11.156 17 L 14.344 17 C 15.809 17 17 15.638 17 13.964 L 17 3.036 C 17 1.362 15.808 0 14.344 0 Z"/>
</svg>