<?xml version="1.0" encoding="utf-8"?>
<svg xmlns="http://www.w3.org/2000/svg" width="17" height="17" viewBox="0 0 17 17">
    <path
        d="M 16.844 8.071 L 12.063 2.607 C 11.855 2.37 11.519 2.37 11.312 2.607 C 11.104 2.844 11.104 3.228 11.312 3.465 L 15.187 7.893 L 5.844 7.893 C 5.552 7.893 5.312 8.166 5.312 8.5 C 5.312 8.834 5.55 9.107 5.844 9.107 L 15.187 9.107 L 11.312 13.535 C 11.105 13.773 11.105 14.157 11.312 14.394 C 11.52 14.631 11.856 14.631 12.063 14.394 L 16.845 8.93 C 16.947 8.811 17 8.656 17 8.5 C 17 8.344 16.947 8.189 16.844 8.071 Z M 5.844 15.786 L 2.656 15.786 C 1.777 15.786 1.062 14.97 1.062 13.964 L 1.062 3.036 C 1.062 2.031 1.777 1.214 2.656 1.214 L 5.844 1.214 C 6.136 1.214 6.375 0.943 6.375 0.607 C 6.375 0.272 6.136 0 5.844 0 L 2.656 0 C 1.191 0 0 1.362 0 3.036 L 0 13.964 C 0 15.638 1.191 17 2.656 17 L 5.844 17 C 6.136 17 6.375 16.727 6.375 16.393 C 6.375 16.059 6.136 15.786 5.844 15.786 Z"/>
</svg>