<?xml version="1.0" encoding="utf-8"?>
<svg xmlns="http://www.w3.org/2000/svg" width="17" height="17" viewBox="0 0 17 17">
    <path
        d="M 2.773 5.667 C 2.773 4.624 3.473 3.778 4.28 3.778 C 5.135 3.778 5.786 4.624 5.786 5.667 C 5.786 6.709 5.135 7.556 4.28 7.556 C 3.473 7.556 2.773 6.709 2.773 5.667 Z M 4.28 4.857 C 3.946 4.857 3.634 5.218 3.634 5.667 C 3.634 6.115 3.946 6.476 4.28 6.476 C 4.662 6.476 4.925 6.115 4.925 5.667 C 4.925 5.218 4.662 4.857 4.28 4.857 Z M 5.754 1.456 C 6.009 1.595 6.251 1.771 6.472 1.977 L 7.201 1.704 C 7.349 1.648 7.513 1.697 7.621 1.842 C 8.056 2.443 8.39 3.164 8.589 3.96 C 8.637 4.145 8.589 4.348 8.476 4.483 L 7.911 5.127 C 7.954 5.313 7.938 5.501 7.938 5.694 C 7.938 5.839 7.954 6.041 7.941 6.21 L 8.476 6.851 C 8.589 6.986 8.637 7.188 8.589 7.373 C 8.39 8.17 8.056 8.891 7.621 9.492 C 7.513 9.637 7.349 9.687 7.201 9.63 L 6.512 9.37 C 6.276 9.596 6.017 9.785 5.743 9.937 L 5.576 10.814 C 5.517 11.006 5.426 11.158 5.272 11.202 C 4.96 11.286 4.638 11.333 4.28 11.333 C 3.97 11.333 3.648 11.286 3.311 11.202 C 3.182 11.158 3.067 11.006 3.032 10.814 L 2.865 9.937 C 2.589 9.785 2.332 9.596 2.096 9.37 L 1.408 9.63 C 1.258 9.687 1.094 9.637 0.988 9.492 C 0.552 8.891 0.217 8.17 0.018 7.373 C -0.029 7.188 0.019 6.986 0.131 6.851 L 0.669 6.21 C 0.654 6.041 0.646 5.839 0.646 5.694 C 0.646 5.501 0.655 5.313 0.673 5.127 L 0.131 4.483 C 0.019 4.348 -0.029 4.145 0.018 3.96 C 0.217 3.164 0.552 2.443 0.988 1.842 C 1.094 1.697 1.258 1.648 1.408 1.704 L 2.135 1.977 C 2.357 1.771 2.598 1.595 2.854 1.456 L 3.032 0.518 C 3.067 0.328 3.182 0.174 3.311 0.132 C 3.648 0.046 3.97 0 4.28 0 C 4.638 0 4.96 0.046 5.272 0.132 C 5.426 0.174 5.517 0.328 5.576 0.518 L 5.754 1.456 Z M 1.579 4.719 L 1.528 5.259 C 1.514 5.4 1.482 5.545 1.482 5.694 C 1.482 5.829 1.512 5.96 1.524 6.092 L 1.571 6.625 L 0.934 7.384 C 1.062 7.785 1.233 8.156 1.441 8.49 L 2.269 8.18 L 2.618 8.514 C 2.798 8.686 2.997 8.831 3.207 8.945 L 3.602 9.158 L 3.801 10.21 C 3.965 10.241 4.132 10.254 4.28 10.254 C 4.473 10.254 4.643 10.241 4.807 10.21 L 5.006 9.158 L 5.401 8.945 C 5.611 8.831 5.786 8.686 5.991 8.514 L 6.34 8.18 L 7.166 8.49 C 7.376 8.156 7.545 7.785 7.674 7.384 L 7.037 6.625 L 7.083 6.092 C 7.096 5.96 7.077 5.829 7.077 5.694 C 7.077 5.545 7.093 5.4 7.08 5.259 L 7.029 4.719 L 7.674 3.95 C 7.545 3.548 7.376 3.177 7.166 2.843 L 6.305 3.167 L 5.961 2.844 C 5.789 2.686 5.606 2.552 5.41 2.446 L 5.017 2.231 L 4.807 1.123 C 4.643 1.094 4.473 1.079 4.28 1.079 C 4.132 1.079 3.965 1.094 3.801 1.123 L 3.591 2.231 L 3.196 2.446 C 3.002 2.552 2.816 2.686 2.648 2.844 L 2.302 3.167 L 1.441 2.843 C 1.233 3.177 1.062 3.548 0.934 3.95 L 1.579 4.719 Z M 12.481 9.714 C 13.312 9.714 13.987 10.561 13.987 11.603 C 13.987 12.646 13.312 13.492 12.481 13.492 C 11.65 13.492 10.975 12.646 10.975 11.603 C 10.975 10.561 11.65 9.714 12.481 9.714 Z M 13.127 11.603 C 13.127 11.155 12.839 10.794 12.481 10.794 C 12.123 10.794 11.836 11.155 11.836 11.603 C 11.836 12.052 12.123 12.413 12.481 12.413 C 12.839 12.413 13.127 12.052 13.127 11.603 Z M 15.838 13.421 C 15.728 13.742 15.588 14.045 15.424 14.322 L 15.642 15.236 C 15.687 15.422 15.647 15.627 15.531 15.762 C 15.053 16.309 14.477 16.727 13.842 16.977 C 13.694 17.037 13.533 16.977 13.425 16.835 L 12.887 16.127 C 12.764 16.181 12.613 16.191 12.46 16.191 C 12.32 16.191 12.183 16.181 12.048 16.164 L 11.537 16.835 C 11.429 16.977 11.268 17.037 11.12 16.977 C 10.485 16.727 9.91 16.309 9.431 15.762 C 9.315 15.631 9.277 15.422 9.321 15.236 L 9.528 14.373 C 9.347 14.076 9.197 13.752 9.076 13.408 L 8.376 13.199 C 8.223 13.125 8.102 13.01 8.067 12.818 C 8 12.426 7.962 12.022 7.962 11.603 C 7.962 11.185 8 10.78 8.067 10.359 C 8.102 10.197 8.223 10.052 8.376 10.008 L 9.076 9.799 C 9.197 9.455 9.347 9.131 9.528 8.834 L 9.321 7.971 C 9.277 7.785 9.315 7.579 9.431 7.444 C 9.91 6.898 10.485 6.48 11.12 6.23 C 11.268 6.169 11.429 6.23 11.537 6.372 L 12.048 7.046 C 12.183 7.026 12.32 7.016 12.46 7.016 C 12.613 7.016 12.764 7.026 12.887 7.05 L 13.425 6.372 C 13.533 6.23 13.694 6.169 13.842 6.23 C 14.477 6.48 15.053 6.898 15.531 7.444 C 15.647 7.579 15.687 7.785 15.642 7.971 L 15.424 8.885 C 15.588 9.161 15.728 9.465 15.838 9.785 L 16.586 10.008 C 16.739 10.052 16.86 10.197 16.895 10.359 C 16.965 10.78 17 11.185 17 11.603 C 17 12.022 16.965 12.426 16.895 12.818 C 16.86 13.01 16.739 13.125 16.586 13.199 L 15.838 13.421 Z M 13.237 8.186 L 12.807 8.122 C 12.694 8.105 12.578 8.095 12.46 8.095 C 12.352 8.095 12.247 8.102 12.142 8.119 L 11.717 8.176 L 11.112 7.377 C 10.792 7.539 10.496 7.751 10.23 8.014 L 10.477 9.053 L 10.211 9.488 C 10.074 9.714 9.958 9.964 9.867 10.227 L 9.697 10.723 L 8.858 10.973 C 8.834 11.178 8.823 11.391 8.823 11.603 C 8.823 11.816 8.834 12.028 8.858 12.234 L 9.697 12.484 L 9.867 12.979 C 9.958 13.243 10.074 13.462 10.211 13.718 L 10.477 14.157 L 10.23 15.192 C 10.496 15.455 10.792 15.668 11.112 15.83 L 11.717 15.03 L 12.142 15.091 C 12.247 15.105 12.352 15.111 12.46 15.111 C 12.578 15.111 12.694 15.101 12.807 15.084 L 13.237 15.02 L 13.85 15.83 C 14.17 15.668 14.466 15.455 14.732 15.192 L 14.474 14.113 L 14.732 13.681 C 14.859 13.469 14.964 13.236 15.05 12.99 L 15.222 12.497 L 16.104 12.234 C 16.129 12.028 16.139 11.816 16.139 11.603 C 16.139 11.391 16.129 11.178 16.104 10.973 L 15.222 10.709 L 15.05 10.217 C 14.964 9.971 14.859 9.741 14.732 9.525 L 14.474 9.094 L 14.732 8.014 C 14.466 7.751 14.17 7.539 13.85 7.377 L 13.237 8.186 Z"/>
</svg>